<svg width="264" height="282" viewBox="0 0 264 282" fill="none" xmlns="http://www.w3.org/2000/svg">
<g style="mix-blend-mode:soft-light">
<g style="mix-blend-mode:soft-light">
<g style="mix-blend-mode:soft-light">
<path d="M225.945 200.259C227.81 182.318 206.14 172.817 190.32 165.881C187.175 164.501 184.21 163.201 181.72 161.963C174.13 158.168 159.979 151.147 154.856 141.764C152.171 136.85 149.97 131.38 154.021 128.088C162.266 121.376 178.522 135.811 183.845 140.55L183.973 140.659C189.371 145.445 200.898 151.631 206.653 152.044C216.538 152.713 223.607 148.643 227.667 139.947C231.182 132.405 230.608 123.61 226.05 115.18C221.135 106.091 213.659 99.8677 205.747 93.2786C203.664 91.5424 201.51 89.7493 199.409 87.8992C184.314 74.6168 176.558 60.8979 173.484 41.9847C173.01 39.1384 172.716 36.5626 172.422 34.0721C171.521 26.4822 170.747 19.9121 165.904 10.8279C161.592 2.76353 151.198 -1.58647 141.213 0.533981C137.119 1.40208 132.731 4.02536 129.173 7.73496C126.536 10.4863 124.638 13.5792 123.827 16.4539C119.083 33.2989 131.64 48.6401 143.101 60.12L145.852 62.8808C153.015 70.0723 160.42 77.5057 168.224 84.5075C174.49 90.1288 179.182 95.2662 183.214 103.482C185.32 107.78 185.311 112.733 183.214 115.256C181.506 117.291 178.494 117.761 174.495 116.608C167.911 114.711 162.019 109.493 156.326 104.479C153.362 101.86 150.567 99.3885 147.74 97.4341C146.113 96.3099 144.258 94.8014 142.29 93.2027C134.79 87.1023 125.449 79.5123 116.583 82.5578C112.39 83.9809 109.435 86.5093 108.045 89.8157C106.565 93.3498 106.911 97.733 109.022 102.149C109.7 103.573 110.919 105.195 112.248 106.893C113.889 109.047 115.753 111.48 115.986 113.06C116.247 114.81 115.943 116.129 115.156 116.679C114.368 117.23 112.85 117.045 111.095 116.091C109.027 114.967 106.769 112.296 104.587 109.744C103.216 108.037 101.721 106.434 100.113 104.948C95.9719 101.424 90.9435 97.7188 83.6382 98.3781C76.3328 99.0375 74.108 102.771 73.5957 105.783C71.3282 119.066 95.0801 144.449 109.648 151.09C113.196 152.708 116.892 154.017 120.469 155.284C129.515 158.491 138.058 161.517 144.353 169.164C147.081 172.485 151.81 179.97 150.197 184.619C149.557 186.455 147.968 187.627 145.345 188.196C131.972 191.099 113.737 175.298 107.741 170.103C92.8553 157.205 77.4571 143.866 65.0475 128.662C54.9908 116.328 41.2814 110.332 30.1289 113.34C27.3681 114.085 25.186 115.958 23.8198 118.762C21.538 123.43 21.9223 129.753 23.4308 133.335C28.2125 144.653 37.273 155.104 46.3525 164.705C47.9606 166.408 49.9909 168.32 52.1398 170.34C58.0932 175.948 65.4982 182.926 67.4336 188.955C68.6148 192.622 67.7325 194.737 64.3976 196.265C56.6938 199.79 51.4188 193.025 46.3193 186.488C42.4816 181.569 38.8574 176.925 34.2607 176.692C30.0293 176.479 26.9601 177.864 25.148 180.815C21.1206 187.37 24.778 199.628 27.5199 204.438C42.937 231.354 67.0304 253.052 99.1502 268.953C106.702 272.686 118.296 277.459 130.672 278.996C133.28 279.325 135.905 279.493 138.533 279.498C147.773 279.498 155.842 277.269 162.598 272.833C167.74 269.456 170.188 265.096 169.523 260.552C168.665 254.784 162.716 249.338 154.728 246.999C147.949 245.016 140.886 244.537 134.059 244.072C124.287 243.403 114.183 242.716 105.047 237.535C100.739 235.092 95.1749 229.561 96.2755 224.922C96.6597 223.318 97.3286 222.265 98.32 221.71C100.554 220.458 104.368 221.71 108.054 222.896C112.352 224.296 116.797 225.742 119.349 223.257C120.905 221.739 121.536 220.055 121.218 218.257C120.511 214.196 114.899 209.823 104.065 204.894C95.118 200.828 91.731 195.473 91.5412 192.124C91.3724 190.613 92.0962 189.141 93.396 188.352C98.8276 185.117 114.857 193.741 136.27 211.421L136.55 211.649C137.797 212.678 139.064 213.755 140.288 214.794C147.024 220.52 153.992 226.44 163.091 228.949C171.772 231.321 182.066 231.53 189.143 231.269C208.038 230.567 224.214 216.943 225.945 200.259Z" fill="#EAF3F3"/>
</g>
<g style="mix-blend-mode:soft-light">
<path d="M36.4239 246.696C33.8528 243.29 32.5198 239.969 31.1915 236.795C29.5739 232.844 28.0417 229.111 24.4222 226.065C20.9119 223.119 17.0837 221.435 13.0373 221.065C8.84382 220.676 1.65233 221.9 0.257674 226.824C-0.75274 230.372 1.40566 233.162 3.31264 235.619C4.16926 236.646 4.91796 237.759 5.54693 238.94C6.90364 241.786 6.69966 243.935 6.46247 246.439C6.27561 248.013 6.22166 249.6 6.30118 251.183C6.59055 255.452 10.1436 262.094 19.2516 267.924C23.668 270.742 29.5455 273.227 34.7398 273.227C36.3027 273.249 37.8562 272.982 39.3223 272.44C43.0224 271.017 45.2709 268.953 46.0015 266.32C47.491 260.955 42.5528 254.603 38.198 249.001C37.5813 248.209 36.9789 247.436 36.4239 246.696Z" fill="#EAF3F3"/>
</g>
<g style="mix-blend-mode:soft-light">
<path d="M71.0104 67.9993C68.3919 71.0258 68.297 76.9318 73.2779 81.9079C75.0478 83.7346 77.4754 84.7767 80.0187 84.8016C80.9634 84.8042 81.9028 84.6602 82.8033 84.3747C85.7302 83.4259 87.8317 81.1632 88.2871 78.4403C88.6096 76.5096 88.344 72.6624 82.9266 68.6113C77.3717 64.451 73.1261 65.5563 71.0104 67.9993Z" fill="#EAF3F3"/>
</g>
<g style="mix-blend-mode:soft-light">
<path d="M54.5686 46.4248C58.7194 48.8726 62.4954 50.0917 65.9536 50.0917C69.2959 50.0832 72.5237 48.8726 75.0473 46.681C79.0652 43.3604 80.5643 38.9582 79.3926 33.9156C76.6791 22.2555 60.9395 10.2349 52.0592 8.13343C47.4056 7.03288 43.5964 7.53097 41.0395 9.55654C38.6202 11.492 37.3679 14.7746 37.4153 19.044C37.5102 29.2478 48.6058 42.8955 54.5686 46.4248Z" fill="#EAF3F3"/>
</g>
<g style="mix-blend-mode:soft-light">
<path d="M233.929 65.6275C236.957 65.6375 239.923 64.7691 242.468 63.1275C246.286 60.7129 248.198 56.899 248.16 51.79C248.027 39.3092 236.021 22.7346 228.298 18.081C220.879 13.6077 210.694 12.5925 205.585 19.3097C199.651 27.1083 203.46 40.1156 209.855 49.5462C215.746 58.2841 224.935 65.6275 233.929 65.6275Z" fill="#EAF3F3"/>
</g>
<g style="mix-blend-mode:soft-light">
<path d="M259.27 152.02C253.819 147.912 246.044 148.875 243.246 152.414C240.025 156.475 244.669 160.844 246.144 162.086C248.919 164.397 252.031 165.616 254.944 165.616C256.136 165.62 257.318 165.403 258.43 164.975C261.02 163.974 262.771 161.925 263.108 159.496C263.454 156.826 262.116 154.169 259.27 152.02Z" fill="#EAF3F3"/>
</g>
<g style="mix-blend-mode:soft-light">
<path d="M242.43 233C238.749 233.702 236.263 235.021 233.891 236.321C232.266 237.234 230.575 238.027 228.834 238.693C226.016 239.722 224.128 239.751 221.942 239.789C219.053 239.841 215.775 239.893 209.722 242.241C204.252 244.362 202.739 247.853 202.435 250.405C201.904 254.793 204.627 259.893 209.209 263.085C213.308 265.931 219.005 267.511 225.31 267.511H225.983C231.97 267.407 238.08 265.917 242.752 263.422C254.982 256.885 257.799 249.836 258.369 247.829C259.237 244.887 258.828 241.716 257.24 239.091C254.839 234.941 246.875 232.156 242.43 233Z" fill="#EAF3F3"/>
</g>
</g>
</g>
<path d="M197.417 111.287C191.206 106.047 181.689 105.94 173.759 110C173.187 110.294 172.598 110.607 171.968 110.95C169.898 108.07 165.193 107.45 161.102 108.533C159.463 108.969 157.505 109.695 155.124 110.713C154.465 110.994 153.777 111.297 153.03 111.632C152.039 112.077 148.783 113.576 148.205 113.836C145.52 115.041 142.796 116.29 138.883 118.102C138.505 118.277 138.111 118.46 137.658 118.669C132.049 121.27 131.838 121.367 129.769 122.316C123.763 125.07 115.223 129.426 109.222 132.787C107.544 133.73 104.721 135.36 101.072 137.486L100.928 137.57C98.8022 138.809 96.534 140.136 94.2718 141.463C93.4801 141.928 92.7456 142.359 92.087 142.746C91.9441 142.83 91.8374 142.893 91.7187 142.963C90.7614 142.45 88.8558 141.429 88.2206 141.089C86.5816 140.212 85.2178 139.485 83.8995 138.788C83.4876 138.57 83.0851 138.357 82.6903 138.15C78.9917 136.203 75.9517 134.653 73.4368 133.447C67.2209 130.462 64.6878 129.45 61.3563 128.962C59.2414 128.652 57.2276 128.729 55.2398 129.237C50.5812 130.426 48.8664 135.96 51.6437 140.702C53.2928 143.514 55.3609 145.817 59.4886 149.808C59.5176 149.836 60.7151 150.991 61.0568 151.323C61.6467 151.895 62.1275 152.367 62.5787 152.819C63.0159 153.258 63.4153 153.667 63.7894 154.062C64.1655 154.461 66.2884 156.693 66.9008 157.345C72.705 163.52 75.7043 167.689 77.1116 172.463C79.3376 180.025 79.8764 187.659 79.8764 202.157C79.8764 206.076 79.9727 215.458 80.1384 228.648C80.1578 230.198 80.1781 231.787 80.1991 233.411C80.2696 238.871 80.3453 268.203 80.4209 273.66C80.4473 275.57 80.4719 277.324 80.4939 278.882C80.5017 279.428 80.5085 279.91 80.5144 280.324C80.5204 280.743 80.5204 280.743 80.5217 280.831C80.5291 281.349 80.9517 281.766 81.4703 281.766H163.693C164.223 281.766 164.65 281.333 164.642 280.804C164.637 280.435 164.637 280.435 164.613 278.779C164.59 277.168 164.564 275.374 164.536 273.441C164.457 267.92 164.378 238.679 164.304 233.526L164.302 233.379C164.169 224.126 164.068 217.12 164.011 213.257C163.945 209.249 163.815 205.047 163.62 200.3C163.47 196.652 163.325 193.616 163.009 187.245C162.628 179.591 162.471 176.266 162.315 172.226C162.465 172.092 162.632 171.943 162.815 171.778C163.478 171.184 164.216 170.519 165.011 169.799C167.283 167.743 169.555 165.66 171.676 163.677C171.933 163.437 172.187 163.199 172.437 162.964C176.182 159.446 178.941 156.713 180.379 155.045C181.301 153.975 182.308 152.861 183.506 151.577C184.065 150.978 184.651 150.357 185.392 149.578C185.709 149.244 186.989 147.901 187.31 147.563C193.658 140.884 196.863 136.982 199.443 132.175C201.02 129.253 200.768 125.689 198.759 123.491C201.876 119.672 201.04 114.345 197.417 111.287Z" fill="#FCB7A0"/>
<path d="M114.739 181.62C115.095 181.6 115.354 181.579 116.043 181.519C116.455 181.483 116.67 181.465 116.912 181.448C118.026 181.368 118.806 181.387 119.48 181.537C119.991 181.651 120.498 181.328 120.612 180.817C120.726 180.305 120.403 179.798 119.892 179.685C118.999 179.486 118.06 179.464 116.778 179.555C116.522 179.573 116.3 179.591 115.877 179.628C115.21 179.687 114.962 179.707 114.633 179.725C114.11 179.754 113.71 180.202 113.739 180.725C113.768 181.248 114.215 181.649 114.739 181.62Z" fill="#DC8173"/>
<path d="M111.923 145.732C115.375 144.905 119.621 145.653 123.79 148.121C127.592 150.373 129.808 153.514 131.512 158.011C131.697 158.501 132.245 158.748 132.735 158.562C133.225 158.376 133.472 157.829 133.286 157.339C131.444 152.475 128.987 148.994 124.756 146.489C120.177 143.777 115.429 142.94 111.481 143.887C110.971 144.009 110.657 144.521 110.78 145.031C110.902 145.54 111.414 145.855 111.923 145.732Z" fill="#DC8173"/>
<path d="M136.407 129.345C147.365 129.345 159.279 133.01 168.427 139.119C168.863 139.41 169.452 139.292 169.743 138.857C170.034 138.421 169.917 137.832 169.481 137.541C160.023 131.225 147.743 127.448 136.407 127.448C135.883 127.448 135.459 127.872 135.459 128.396C135.459 128.92 135.883 129.345 136.407 129.345Z" fill="#DC8173"/>
<path d="M155.762 132.45C156.578 131.939 157.396 131.418 158.219 130.883C163.117 127.699 176.892 117.777 177.539 117.335C183.859 113.02 188.205 110.888 192.3 110.382C192.82 110.318 193.19 109.844 193.126 109.324C193.062 108.804 192.588 108.435 192.068 108.499C187.593 109.051 183.02 111.295 176.469 115.768C175.787 116.234 162.037 126.138 157.185 129.292C156.371 129.821 155.562 130.337 154.756 130.842C154.312 131.12 154.177 131.705 154.455 132.149C154.733 132.593 155.318 132.728 155.762 132.45Z" fill="#DC8173"/>
<path d="M144.508 129.509C144.938 129.2 145.336 128.914 146.018 128.423C152.154 124.01 154.782 122.149 158.361 119.733C164.507 115.584 166.848 114.118 171.217 111.822C171.681 111.578 171.859 111.005 171.616 110.541C171.372 110.077 170.798 109.899 170.334 110.142C165.889 112.478 163.499 113.975 157.299 118.161C153.7 120.591 151.061 122.459 144.91 126.883C144.229 127.373 143.831 127.659 143.401 127.967C142.976 128.273 142.878 128.866 143.184 129.292C143.49 129.717 144.083 129.814 144.508 129.509Z" fill="#DC8173"/>
<path d="M197.229 123.18C197.681 123.446 198.262 123.295 198.528 122.844C198.794 122.392 198.643 121.811 198.192 121.545C196.606 120.611 194.817 120.078 192.978 119.992L192.918 119.991C191.445 120.016 189.854 120.516 188.074 121.426C186.85 122.053 185.6 122.834 184.037 123.912C183.989 123.945 181.17 125.93 180.484 126.378C173.254 131.109 169.922 133.249 165.723 135.807C165.276 136.08 165.134 136.664 165.407 137.111C165.679 137.558 166.263 137.7 166.711 137.428C170.932 134.856 174.277 132.707 181.523 127.966C182.241 127.498 185.091 125.49 185.114 125.474C186.615 124.439 187.802 123.697 188.938 123.115C190.469 122.332 191.79 121.914 192.92 121.889C194.439 121.965 195.918 122.408 197.229 123.18Z" fill="#DC8173"/>
<path d="M206.866 261.743C205.467 257.132 203.593 253.536 199.001 250.979C195.604 249.082 192.512 248.792 189.224 250.149C190.899 246.97 191.693 243.401 191.525 239.812C191.311 233.906 188.84 228.461 184.907 225.249C176.957 218.75 171.018 222.801 165.292 226.834C165.249 224.765 165.373 222.526 165.486 220.505C165.621 218.769 165.669 217.028 165.629 215.287C165.434 211.62 165.539 207.83 165.629 204.158C165.728 200.411 165.833 196.535 165.629 192.774C165.61 192.439 165.417 192.139 165.12 191.985C164.823 191.83 164.467 191.843 164.182 192.019C160.985 193.978 157.678 196.009 153.561 196.981C143.049 199.462 130.957 200.349 116.593 199.69C114.221 199.586 111.849 199.5 109.477 199.415C103.785 199.211 97.9311 199.002 92.2101 198.466C81.8261 197.475 80.2037 195.966 79.9523 195.525C79.7466 195.164 79.3301 194.979 78.9245 195.068C78.5189 195.157 78.2184 195.5 78.1829 195.914C77.9694 198.328 76.6934 213.181 76.4704 224.187C73.9468 223.65 71.2191 223.76 68.833 225.401C62.2724 229.912 63.7715 237.165 65.0902 243.565C65.1898 244.039 65.2895 244.513 65.3796 244.988C65.1367 244.816 64.8849 244.658 64.6253 244.513C61.0248 242.521 55.1758 242.407 52.5952 244.276C47.823 247.734 46.7937 255.979 46.5897 258.422C46.1438 263.877 48.0128 271.178 51.3002 275.869C52.9226 278.194 56.4471 281.733 59.1938 281.733H204.779C207.359 277.525 208.735 267.909 206.866 261.743Z" fill="#2AC28B"/>
<path d="M81.2587 198.881C81.3204 198.361 81.7922 197.989 82.3125 198.05C82.8328 198.112 83.2047 198.584 83.143 199.104C82.8156 201.867 82.6631 204.645 82.5315 209.207C82.5198 209.614 82.5113 209.917 82.4903 210.681C82.4134 213.468 82.3724 214.728 82.2994 216.257C82.2227 217.872 82.24 221.316 82.3283 226.452C82.3454 227.449 82.365 228.495 82.3883 229.684C82.4058 230.576 82.4643 233.457 82.474 233.95C82.4974 235.137 82.512 235.957 82.5196 236.548C82.7651 236.634 83.0249 236.722 83.3005 236.813C83.4157 236.851 84.0148 237.047 84.1844 237.103C84.657 237.258 85.1503 237.42 85.7196 237.607C85.7859 237.629 88.325 238.465 89.0557 238.705C90.3214 239.12 91.3673 239.46 92.3702 239.78C94.9036 240.589 97.2095 241.284 99.374 241.881L99.3731 241.866C99.3731 237.155 99.3863 234.61 99.4461 231.547C99.5347 227.004 99.7123 223.36 100.01 220.703C100.068 220.183 100.538 219.808 101.058 219.866C101.579 219.925 101.954 220.394 101.896 220.915C101.606 223.5 101.431 227.095 101.343 231.584C101.288 234.418 101.273 236.81 101.271 240.913L101.271 241.866C101.271 242.045 101.222 242.211 101.136 242.354C102.803 242.787 104.396 243.161 105.958 243.482L105.957 236.421C105.957 235.897 106.382 235.472 106.906 235.472C107.43 235.472 107.855 235.897 107.855 236.421V243.797C107.855 243.815 107.854 243.832 107.854 243.85C108.96 244.051 110.06 244.227 111.169 244.38C116.284 245.091 121.474 245.28 126.669 244.97L126.669 213.893C126.669 213.369 127.093 212.944 127.617 212.944C128.141 212.944 128.566 213.369 128.566 213.893L128.566 244.835C136.386 244.185 144.198 242.409 151.768 239.579C151.768 239.544 151.77 239.509 151.775 239.474C152.029 237.398 152.085 234.895 152 231.6C151.973 230.548 151.937 229.569 151.87 227.918C151.782 225.748 151.766 225.329 151.74 224.437C151.724 223.914 152.136 223.477 152.66 223.461C153.184 223.446 153.621 223.858 153.636 224.382C153.662 225.263 153.678 225.68 153.766 227.841C153.833 229.501 153.869 230.487 153.897 231.551C153.973 234.482 153.939 236.815 153.754 238.81C155.327 238.181 156.888 237.505 158.436 236.784C161.125 235.534 162.133 234.924 163.065 233.8C164.256 232.365 164.86 230.273 164.86 227.004C164.86 226.48 165.285 226.056 165.809 226.056C166.333 226.056 166.758 226.48 166.758 227.004C166.758 230.681 166.031 233.197 164.526 235.011C163.351 236.428 162.18 237.136 159.236 238.505C143.793 245.696 127.003 248.496 110.908 246.26C105.016 245.444 99.4066 244.018 91.7931 241.588C90.7848 241.266 89.7343 240.925 88.4642 240.508C87.7321 240.268 85.1918 239.431 85.1265 239.409C84.5583 239.222 84.0662 239.061 83.5921 238.906C83.4227 238.85 82.8244 238.654 82.7067 238.615C79.6146 237.596 78.1516 236.812 76.926 235.102C75.413 232.991 74.8944 229.814 75.3552 224.984C75.4049 224.462 75.8681 224.079 76.3897 224.129C76.9114 224.179 77.2939 224.642 77.2441 225.164C76.8228 229.581 77.2709 232.326 78.4682 233.997C79.0062 234.747 79.6341 235.276 80.6094 235.765C80.6019 235.288 80.591 234.705 80.5769 233.988C80.5671 233.495 80.5087 230.614 80.4912 229.721C80.4678 228.531 80.4483 227.483 80.4311 226.485C80.3419 221.3 80.3246 217.841 80.4041 216.167C80.4762 214.654 80.517 213.402 80.5935 210.629C80.6146 209.864 80.6231 209.56 80.6348 209.153C80.7679 204.537 80.9228 201.715 81.2587 198.881ZM160.321 195.141C160.845 195.141 161.269 195.565 161.269 196.089C161.269 198.658 161.321 200.724 161.474 205.315C161.705 212.248 161.75 215.304 161.59 219.154C161.473 221.98 161.235 224.61 160.851 227.147C160.772 227.665 160.288 228.021 159.77 227.942C159.252 227.864 158.896 227.38 158.975 226.862C159.348 224.398 159.58 221.836 159.694 219.076C159.851 215.288 159.807 212.264 159.577 205.378C159.43 200.962 159.376 198.868 159.372 196.418L159.372 196.089C159.372 195.565 159.797 195.141 160.321 195.141ZM87.7606 200.145L87.8314 200.148C88.3539 200.187 88.7457 200.642 88.7066 201.165C88.4443 204.667 88.3067 208.744 88.2545 213.718C88.2267 216.359 88.2235 218.534 88.2312 223.063C88.2334 224.362 88.2344 225.044 88.2347 225.684L88.2349 226.236C88.2349 226.76 87.8101 227.185 87.2861 227.185C86.7621 227.185 86.3374 226.76 86.3374 226.236C86.3374 225.386 86.3365 224.735 86.3337 223.067C86.326 218.53 86.3292 216.35 86.3571 213.698C86.4097 208.687 86.5486 204.572 86.8144 201.023C86.8535 200.501 87.3088 200.109 87.8314 200.148L87.7606 200.145ZM155.038 197.311C155.56 197.273 156.015 197.665 156.053 198.188C156.34 202.101 156.382 205.607 156.307 212.096C156.301 212.62 155.872 213.04 155.348 213.034C154.824 213.028 154.404 212.598 154.41 212.074C154.484 205.637 154.443 202.171 154.161 198.327C154.123 197.804 154.515 197.349 155.038 197.311Z" fill="#1CB377"/>
<path d="M123.713 33.8965C124.145 33.5123 124.662 33.1328 125.136 32.7628C126.232 31.9232 127.366 31.055 128.011 29.9545C128.266 29.5112 128.452 29.0312 128.561 28.5314C126.927 28.4832 125.291 28.5243 123.661 28.6547C115.017 29.3192 106.83 32.8003 100.355 38.5644C100.408 38.6278 100.465 38.688 100.526 38.7446C103.614 41.7095 106.631 39.8879 109.065 38.4268C109.539 38.1374 110.013 37.8623 110.436 37.6251C110.883 37.9965 111.39 38.29 111.935 38.4932C112.063 40.3528 112.551 43.7113 114.349 44.2616C114.514 44.3116 114.685 44.3372 114.857 44.3375C116.156 44.3375 117.229 42.8859 117.599 42.3688C119.728 39.4609 119.776 38.6355 119.069 35.3244C119.005 35.0575 118.926 34.7946 118.832 34.5369C118.749 34.3252 118.687 34.106 118.647 33.8823C120.725 34.9639 122.499 34.9734 123.713 33.8965Z" fill="#C1EAF7"/>
<path d="M158.134 96.5043C157.527 96.0022 156.787 95.6875 156.004 95.5982C154.903 95.399 153.437 95.9445 151.881 96.5185C150.06 97.1921 148.001 97.9416 147.475 97.0545C147.333 96.8016 147.049 96.6635 146.763 96.7082C144.254 97.0593 142.612 98.6959 141.275 100.2C140.961 100.546 140.705 100.887 140.454 101.215C139.961 101.957 139.313 102.585 138.556 103.055C137.034 103.947 136.815 103.848 136.009 103.487C135.428 103.213 134.821 102.998 134.197 102.847C130.658 101.993 125.355 105.802 124.572 108.928C124.472 109.327 124.382 109.782 124.311 110.271C126.313 110.467 128.326 110.525 130.335 110.441C139.605 110.038 149.661 104.815 156.331 98.3543C156.964 97.7534 157.564 97.1368 158.134 96.5043Z" fill="#C1EAF7"/>
<path d="M88.9939 81.7133C92.6465 96.3335 105.028 106.329 119.121 109.44C119.079 107.59 118.149 104.758 117.746 104.222C117.096 103.387 116.854 102.059 116.617 100.774C116.482 99.8758 116.263 98.9927 115.962 98.1361C115.744 97.603 115.422 97.1191 115.013 96.713C114.785 96.4872 114.59 96.23 114.434 95.9492C114.209 95.3053 114.155 94.6138 114.278 93.9426C114.34 93.3894 114.34 92.8309 114.278 92.2776C114.199 91.8557 114.05 91.45 113.837 91.0774C113.694 90.8451 113.597 90.5874 113.552 90.3184C113.614 89.9293 113.805 89.572 114.093 89.3033C114.415 88.9423 114.666 88.5239 114.833 88.0699C115.16 87.031 114.88 85.8356 114.653 84.8774L114.591 84.626C114.521 84.2677 114.478 83.9045 114.463 83.5397C114.449 83.2062 114.417 82.8737 114.368 82.5435C113.998 80.2001 110.972 79.7779 109.15 80.0625C108.454 80.2169 107.804 80.5321 107.252 80.9828C106.934 81.2346 106.583 81.4421 106.209 81.5995C105.708 81.7491 105.183 81.8007 104.662 81.7513C103.752 81.7228 102.642 81.6896 101.816 82.8992C101.494 82.8091 101.195 82.4865 100.749 81.9505C100.607 81.7797 100.469 81.609 100.327 81.4761C99.4206 80.4894 99.079 80.4325 97.9168 80.3661H97.7271C95.9861 80.2617 95.2271 79.3794 94.0365 77.8235C93.8451 77.5922 93.6357 77.3765 93.4103 77.1783C93.0925 76.8889 92.6608 76.4857 92.656 76.2296C92.6513 75.9734 92.656 76.0019 93.2727 75.8548C93.4625 75.8074 93.6522 75.7647 93.8325 75.703L94.5345 75.4421C95.4833 75.0768 96.0431 74.8823 96.7167 75.1622C97.5943 75.5227 97.7318 75.5654 98.4434 75.4658L98.8798 75.4136C99.5155 75.3919 100.15 75.4901 100.749 75.703C101.161 75.8285 101.581 75.9251 102.006 75.9924C102.326 76.0516 102.643 76.1276 102.955 76.2201C103.407 76.3622 103.873 76.4591 104.345 76.5094C104.807 76.512 105.267 76.4465 105.711 76.315C105.901 76.2675 106.081 76.2248 106.233 76.2011C106.642 76.1546 107.054 76.1325 107.466 76.1347C108.237 76.1683 109.009 76.0786 109.752 75.869C110.807 75.5153 111.619 74.6629 111.92 73.5921C112.485 71.7278 111.721 69.2895 110.72 67.947C110.592 67.7762 110.473 67.6292 110.36 67.4726C110.046 67.1349 109.811 66.7314 109.672 66.2915C109.486 65.7109 109.547 65.0792 109.843 64.5458C109.923 64.337 110.013 64.1046 110.103 63.8389C110.445 62.8048 110.103 61.9415 109.819 61.1493C109.577 60.5088 109.344 59.9538 109.534 59.3751C109.771 58.7161 110.089 58.0897 110.483 57.5108C111.228 56.3106 112.067 54.9539 111.83 53.5403C111.455 51.325 108.69 50.177 107.518 49.788C107.2 49.6789 106.887 49.584 106.569 49.4844C105.78 49.2625 105.01 48.9803 104.264 48.64C104.122 48.5736 103.965 48.5072 103.79 48.4455C103.525 48.355 103.274 48.2272 103.045 48.066C102.956 47.9769 102.875 47.8801 102.803 47.7767C102.581 47.4212 102.259 47.139 101.878 46.9655C101.466 46.8504 101.028 46.8721 100.63 47.0272C100.513 47.0667 100.392 47.0937 100.27 47.1078C99.7259 47.0169 99.2082 46.8098 98.7517 46.5006C98.6901 46.4579 98.524 46.3156 98.4007 46.2065C98.1349 45.9241 97.8113 45.7024 97.4519 45.5566C97.082 45.4568 96.7013 45.4026 96.3182 45.3953C95.9475 45.4149 95.5812 45.3078 95.2793 45.0917L95.2224 45.0538L94.7053 44.7075C93.9422 45.7604 93.2481 46.8616 92.6276 48.0044C86.9019 58.7252 86.1239 70.2145 88.9939 81.7133Z" fill="#59D89E"/>
<path d="M158.129 73.3881C158.21 72.6671 158.29 71.9176 158.414 71.2107L158.556 70.447C158.747 69.6188 158.852 68.7731 158.869 67.9233C158.816 66.6887 158.643 65.4621 158.352 64.2612C158.243 63.7394 158.129 63.1986 158.044 62.672C157.674 60.433 157.346 58.9767 155.378 57.3401C154.581 56.656 153.58 56.2556 152.531 56.2016C152.077 56.1571 151.627 56.0794 151.184 55.9691C149.467 55.5327 149.211 55.12 149.182 55.0204C149.242 54.7281 149.349 54.4476 149.5 54.1902C149.919 54.1133 150.342 54.0642 150.767 54.0432C151.141 54.0147 151.53 53.9815 151.915 53.9198C152.856 53.7031 153.828 53.6597 154.785 53.7918C155.885 54.0195 156.682 53.8534 157.194 53.3174C158.143 52.269 157.545 50.3383 157.014 48.6353C156.924 48.346 156.834 48.0661 156.763 47.8147C157.265 48.0642 157.718 48.4016 158.1 48.8109L158.338 49.0291C159.016 49.6481 159.827 50.1026 160.71 50.3573L160.785 50.3858C161.663 50.7089 162.566 50.9596 163.485 51.1353C158.635 40.7016 149.416 32.95 138.305 29.964C138.305 29.9925 138.305 30.0162 138.305 30.0447C138.305 30.2523 138.316 30.4597 138.338 30.6661C138.363 30.8963 138.363 31.1285 138.338 31.3587C138.251 31.5223 138.139 31.6712 138.006 31.7998C137.737 32.0712 137.526 32.3939 137.385 32.7486L137.247 33.1376C136.934 34.0199 136.83 34.3188 135.999 34.6034C135.466 34.7667 134.923 34.8935 134.372 34.9829C133.521 35.1011 132.689 35.3357 131.901 35.6802C130.513 36.3949 129.031 36.9076 127.499 37.2029C127.202 37.2677 126.979 37.5134 126.944 37.8149C126.868 38.4743 126.189 39.1479 125.521 39.8025C124.948 40.3138 124.467 40.9185 124.097 41.5909C123.623 42.6203 123.149 44.6221 123.87 45.9172C124.216 46.5601 124.864 46.9847 125.592 47.0462C125.832 47.0753 126.071 46.9785 126.223 46.79C126.45 46.4936 126.649 46.1759 126.816 45.8413C126.979 45.5047 127.177 45.1866 127.409 44.8925C127.728 44.885 128.047 44.92 128.357 44.9969C128.215 46.42 128.049 47.5585 126.934 48.4124C126.625 48.6142 126.272 48.7409 125.905 48.7824C125.034 48.8565 124.245 49.327 123.765 50.0585C122.94 51.4009 123.253 53.2083 123.429 53.9246C123.462 54.0716 123.495 54.2045 123.523 54.3326C123.652 55.1947 124.056 55.9919 124.676 56.6048C125.378 57.3519 126.23 57.942 127.176 58.3363C127.456 58.4373 127.77 58.3541 127.964 58.1275C128.365 57.7141 128.85 57.3907 129.387 57.1788C129.847 56.9753 130.284 56.7241 130.691 56.4293C131.42 55.7782 132.017 54.9941 132.451 54.1191L132.593 53.8772C133.124 52.8887 133.331 51.759 133.186 50.6467C133.186 50.4664 133.148 50.2814 133.125 50.1059L133.452 50.4237C134.434 51.3725 135.255 52.1267 136.047 52.0651C136.369 52.0453 136.667 51.8859 136.863 51.6286C137.489 50.808 137.295 49.7881 137.124 48.8915C137.095 48.7444 137.067 48.6021 137.043 48.4646L137.095 48.5262C137.368 48.8959 137.669 49.2433 137.997 49.5651C138.178 49.7654 138.337 49.9849 138.471 50.2197C138.717 50.6707 139.054 51.0651 139.462 51.3772C139.961 51.6718 140.558 51.7538 141.118 51.6049C141.847 51.4631 142.496 51.0514 142.935 50.4522C143.133 50.0705 143.272 49.6611 143.348 49.2378C143.41 48.9632 143.487 48.6924 143.58 48.4266C143.927 48.7544 144.213 49.1415 144.424 49.5699C144.695 50.3194 144.306 51.1353 143.2 52.1267L142.726 52.5631C142.176 53.0944 141.493 53.7586 140.928 53.8487C140.703 53.8591 140.478 53.8367 140.259 53.7823C139.647 53.5969 138.986 53.6635 138.424 53.9673C138.119 54.17 137.848 54.4198 137.622 54.7073C137.483 54.8841 137.324 55.0434 137.147 55.1817C136.132 55.879 135.07 56.5052 133.945 57.1693L133.428 57.4776C132.774 57.0555 131.963 57.6294 131.308 58.0896L131.128 58.2129C130.9 58.3363 130.653 58.4454 130.402 58.564C129.53 58.8609 128.778 59.4317 128.258 60.1911C127.76 61.0165 127.807 62.0601 127.85 62.9804C127.85 63.2176 127.873 63.4547 127.85 63.6635C127.85 65.2052 128.609 67.1786 129.363 68.4451C130.644 70.6035 132.404 71.6566 134.444 71.4954C135.233 71.4043 136.012 71.2342 136.768 70.9878C137.618 70.6668 138.52 70.5059 139.429 70.5134C140.283 70.6035 140.497 70.8502 141.075 71.5049L141.251 71.7041C141.53 71.9955 141.829 72.2666 142.147 72.5153C142.509 72.7915 142.829 73.1191 143.096 73.4877C143.452 74.0617 143.348 74.593 143.125 75.4896C143.049 75.8074 142.968 76.1347 142.921 76.4763C142.825 77.4153 142.962 78.3635 143.319 79.2371C143.381 79.4269 143.442 79.6166 143.499 79.8159C143.858 81.2884 144.018 82.8026 143.974 84.3177V84.5264C144.002 85.9495 144.031 87.3062 144.894 88.6487C144.979 88.7768 145.084 88.9618 145.202 89.1705C145.843 90.2853 146.341 91.0965 146.957 91.3526C147.22 91.4663 147.502 91.526 147.788 91.5281C149.548 91.5281 150.634 89.0045 151.322 87.4106C151.483 87.004 151.67 86.6079 151.881 86.2246C152.441 85.3518 153.067 84.5122 153.732 83.6203C155.34 81.4714 157.005 79.2466 157.621 76.5285C157.848 75.4918 158.018 74.4434 158.129 73.3881Z" fill="#59D89E"/>
<path d="M161.336 75.6366C160.259 76.7656 158.85 81.1204 158.693 81.6137C158.668 81.6967 158.657 81.7832 158.66 81.8699C158.666 81.9536 158.666 82.0376 158.66 82.1213C158.594 82.7522 158.418 84.4267 160.24 84.9675C160.367 85.0072 160.5 85.0279 160.634 85.0292C160.943 85.0265 161.242 84.9232 161.488 84.7351C163.077 83.5966 164.03 78.7722 164.073 77.3064V77.1356C164.106 76.0019 164.135 75.0199 163.357 74.6926C162.579 74.3653 161.929 75.0152 161.336 75.6366Z" fill="#59D89E"/>
<path d="M163.494 51.14C162.575 50.9643 161.673 50.7136 160.795 50.3905L160.719 50.362C159.837 50.1073 159.025 49.6528 158.347 49.0338L158.11 48.8156C157.727 48.4063 157.274 48.0689 156.772 47.8194C156.843 48.0708 156.934 48.3507 157.024 48.6401C157.555 50.3431 158.157 52.2738 157.204 53.3221C156.701 53.8771 155.895 54.0432 154.794 53.7965C153.838 53.6644 152.865 53.7079 151.924 53.9246C151.54 53.9862 151.151 54.0194 150.776 54.0479C150.351 54.0689 149.928 54.1181 149.51 54.195C149.359 54.4524 149.251 54.7328 149.192 55.0251C149.22 55.101 149.476 55.4995 151.194 55.9739C151.636 56.0841 152.087 56.1618 152.541 56.2063C153.589 56.2603 154.59 56.6608 155.387 57.3448C157.356 58.9814 157.683 60.4377 158.053 62.6768C158.138 63.2033 158.252 63.7441 158.361 64.2659C158.653 65.4669 158.826 66.6934 158.878 67.9281C158.861 68.7778 158.756 69.6235 158.565 70.4517L158.423 71.2155C158.3 71.9223 158.219 72.6718 158.138 73.3928C158.038 74.4475 157.88 75.4959 157.664 76.5332C157.047 79.2513 155.382 81.4761 153.774 83.6251C153.11 84.5169 152.484 85.3565 151.924 86.2294C151.713 86.6126 151.526 87.0087 151.364 87.4153C150.681 89.0092 149.59 91.5329 147.83 91.5329C147.545 91.5307 147.262 91.4711 147 91.3573C146.383 91.1012 145.885 90.29 145.245 89.1752C145.126 88.9665 145.022 88.7815 144.937 88.6534C144.073 87.3109 144.045 85.959 144.016 84.5311V84.3224C144.061 82.8073 143.901 81.2931 143.542 79.8206C143.485 79.6213 143.423 79.4316 143.362 79.2418C143.004 78.3682 142.867 77.42 142.963 76.481C143.011 76.1395 143.091 75.8121 143.167 75.4943C143.39 74.5977 143.495 74.0712 143.139 73.4924C142.872 73.1238 142.552 72.7962 142.19 72.52C141.877 72.2678 141.582 71.9935 141.308 71.6993L141.132 71.5001C140.553 70.8454 140.34 70.5988 139.486 70.5086C138.577 70.5012 137.675 70.662 136.825 70.983C136.069 71.2295 135.29 71.3995 134.5 71.4906C132.461 71.6519 130.705 70.5988 129.42 68.4404C128.666 67.1738 127.907 65.2004 127.907 63.6587C127.907 63.4405 127.907 63.2128 127.907 62.9756C127.864 62.0553 127.817 61.0117 128.315 60.1863C128.835 59.4269 129.587 58.8562 130.459 58.5592C130.715 58.4406 130.957 58.3315 131.185 58.2082L131.365 58.0848C132.019 57.6104 132.831 57.0507 133.485 57.4729L134.002 57.1645C135.127 56.5004 136.189 55.8742 137.204 55.1769C137.381 55.0386 137.54 54.8793 137.679 54.7025C137.905 54.415 138.176 54.1652 138.48 53.9625C139.043 53.6587 139.704 53.5921 140.316 53.7775C140.535 53.8319 140.76 53.8543 140.985 53.8439C141.55 53.7538 142.233 53.0897 142.783 52.5584L143.257 52.122C144.363 51.1305 144.752 50.3146 144.481 49.5651C144.27 49.1367 143.984 48.7496 143.637 48.4218C143.544 48.6876 143.467 48.9584 143.404 49.233C143.329 49.6563 143.19 50.0657 142.992 50.4474C142.553 51.0466 141.904 51.4583 141.175 51.6001C140.615 51.7491 140.018 51.6671 139.519 51.3724C139.111 51.0603 138.774 50.666 138.528 50.215C138.394 49.9802 138.235 49.7607 138.054 49.5603C137.726 49.2385 137.425 48.8911 137.152 48.5215L137.1 48.4598C137.124 48.5974 137.152 48.7397 137.181 48.8867C137.351 49.7833 137.546 50.7842 136.92 51.6239C136.724 51.8812 136.426 52.0405 136.104 52.0603C135.312 52.122 134.491 51.3867 133.509 50.419L133.182 50.1011C133.205 50.2766 133.229 50.4616 133.243 50.6419C133.388 51.7542 133.181 52.8839 132.65 53.8724L132.508 54.1143C132.074 54.9894 131.476 55.7735 130.748 56.4245C130.341 56.7193 129.904 56.9705 129.444 57.174C128.907 57.3859 128.422 57.7093 128.021 58.1228C127.827 58.3494 127.513 58.4325 127.233 58.3315C126.287 57.9372 125.435 57.3471 124.733 56.6C124.113 55.9871 123.709 55.1899 123.58 54.3278C123.552 54.1997 123.519 54.0669 123.486 53.9198C123.31 53.2035 123.011 51.3962 123.822 50.0537C124.302 49.3223 125.09 48.8517 125.962 48.7776C126.329 48.7362 126.682 48.6095 126.991 48.4076C128.101 47.5537 128.267 46.42 128.414 44.9921C128.104 44.9153 127.785 44.8802 127.466 44.8878C127.234 45.1818 127.036 45.4999 126.873 45.8365C126.706 46.1711 126.507 46.4888 126.28 46.7853C126.128 46.9737 125.889 47.0706 125.649 47.0414C124.921 46.9799 124.273 46.5553 123.927 45.9124C123.206 44.6174 123.666 42.6155 124.154 41.5861C124.524 40.9138 125.005 40.309 125.577 39.7977C126.232 39.1431 126.91 38.4695 127.001 37.8101C127.036 37.5086 127.259 37.2629 127.556 37.1982C129.088 36.9028 130.57 36.3901 131.958 35.6754C132.746 35.3309 133.577 35.0963 134.429 34.9781C134.98 34.8888 135.523 34.762 136.056 34.5986C136.887 34.314 137.005 34.0151 137.304 33.1328L137.442 32.7438C137.583 32.3891 137.794 32.0664 138.063 31.7951C138.196 31.6665 138.308 31.5176 138.395 31.3539C138.42 31.1237 138.42 30.8915 138.395 30.6613C138.373 30.4549 138.362 30.2475 138.362 30.0399C138.362 30.0114 138.362 29.9877 138.362 29.9593C135.177 29.1024 131.901 28.6247 128.604 28.5361C128.495 29.0359 128.309 29.5159 128.054 29.9593C127.409 31.0598 126.275 31.9279 125.179 32.7675C124.705 33.1375 124.202 33.517 123.756 33.9013C122.542 34.9781 120.767 34.9686 118.699 33.9013C118.74 34.1249 118.802 34.3442 118.884 34.5559C118.978 34.8136 119.058 35.0765 119.121 35.3434C119.828 38.664 119.781 39.4799 117.651 42.3878C117.271 42.9049 116.228 44.3565 114.909 44.3565C114.737 44.3562 114.566 44.3306 114.401 44.2806C112.603 43.7398 112.115 40.3717 111.987 38.5122C111.442 38.3089 110.935 38.0155 110.488 37.6441C110.042 37.8813 109.591 38.1564 109.117 38.4458C106.693 39.9068 103.676 41.7284 100.578 38.7636C100.518 38.707 100.461 38.6468 100.407 38.5833C98.3153 40.4246 96.4347 42.493 94.8002 44.7502L95.3173 45.0965L95.3742 45.1344C95.676 45.3505 96.0424 45.4576 96.4131 45.438C96.7961 45.4453 97.1769 45.4995 97.5468 45.5993C97.9061 45.7452 98.2298 45.9668 98.4956 46.2492C98.6189 46.3583 98.7849 46.5006 98.8466 46.5433C99.303 46.8525 99.8208 47.0597 100.365 47.1505C100.487 47.1364 100.608 47.1094 100.725 47.0699C101.123 46.9148 101.561 46.8931 101.973 47.0082C102.354 47.1817 102.676 47.4639 102.898 47.8194C102.97 47.9228 103.051 48.0196 103.14 48.1088C103.369 48.27 103.619 48.3977 103.884 48.4883C104.041 48.5499 104.198 48.6163 104.359 48.6827C105.104 49.023 105.875 49.3053 106.664 49.5271C106.977 49.6268 107.29 49.7216 107.613 49.8307C108.785 50.2197 111.55 51.3677 111.925 53.583C112.162 55.0061 111.323 56.3534 110.578 57.5535C110.184 58.1324 109.865 58.7588 109.629 59.4178C109.463 59.9965 109.672 60.5516 109.914 61.192C110.208 61.9652 110.54 62.8475 110.198 63.8817C110.108 64.1473 110.018 64.3797 109.937 64.5885C109.642 65.1219 109.58 65.7536 109.767 66.3342C109.905 66.7741 110.14 67.1776 110.454 67.5154C110.568 67.6529 110.687 67.8 110.815 67.9897C111.816 69.3322 112.58 71.7847 112.015 73.6348C111.714 74.7056 110.902 75.558 109.847 75.9118C109.104 76.1213 108.332 76.211 107.561 76.1774C107.149 76.1752 106.737 76.1973 106.327 76.2438C106.176 76.2675 105.995 76.3102 105.806 76.3577C105.362 76.4892 104.902 76.5547 104.439 76.5522C103.968 76.5018 103.502 76.4049 103.05 76.2628C102.738 76.1703 102.421 76.0943 102.101 76.0351C101.676 75.9678 101.256 75.8712 100.844 75.7457C100.244 75.5328 99.6103 75.4346 98.9747 75.4564L98.5382 75.5085C97.8267 75.6082 97.6891 75.5655 96.8115 75.2049C96.1379 74.9251 95.5734 75.1195 94.6294 75.4848L93.9273 75.7457C93.7471 75.8074 93.5573 75.8501 93.3676 75.8975C92.7462 76.0446 92.7462 76.0683 92.7502 76.2723C92.7556 76.4763 93.1873 76.9222 93.5051 77.221C93.7306 77.4192 93.9399 77.6349 94.1313 77.8662C95.322 79.4221 96.081 80.3044 97.8219 80.4088H98.0117C99.1739 80.4752 99.5155 80.5321 100.422 81.5188C100.564 81.6706 100.701 81.8414 100.844 81.9932C101.29 82.5387 101.588 82.8613 101.911 82.942C102.727 81.7323 103.837 81.7655 104.757 81.794C105.278 81.8434 105.803 81.7919 106.304 81.6422C106.678 81.4848 107.029 81.2774 107.347 81.0255C107.899 80.5748 108.549 80.2596 109.245 80.1052C111.062 79.8206 114.088 80.2428 114.463 82.5862C114.512 82.9164 114.543 83.2489 114.558 83.5824C114.573 83.9472 114.616 84.3104 114.686 84.6687L114.748 84.9201C114.975 85.8688 115.255 87.0737 114.928 88.1126C114.761 88.5666 114.51 88.985 114.188 89.346C113.9 89.6147 113.709 89.972 113.647 90.3611C113.692 90.6301 113.789 90.8879 113.932 91.1201C114.145 91.4927 114.294 91.8984 114.373 92.3203C114.435 92.8736 114.435 93.4321 114.373 93.9854C114.25 94.6565 114.304 95.348 114.529 95.992C114.685 96.2727 114.88 96.5299 115.108 96.7557C115.516 97.1618 115.839 97.6457 116.057 98.1788C116.358 99.0354 116.577 99.9185 116.711 100.816C116.949 102.102 117.186 103.43 117.84 104.265C118.244 104.782 119.173 107.614 119.216 109.483C120.937 109.865 122.68 110.142 124.434 110.313C124.505 109.839 124.596 109.365 124.695 108.971C125.478 105.845 130.781 102.035 134.32 102.889C134.944 103.041 135.552 103.255 136.132 103.53C136.939 103.89 137.157 104.004 138.68 103.098C139.437 102.628 140.084 102 140.577 101.257C140.829 100.93 141.085 100.589 141.398 100.242C142.736 98.7386 144.377 97.102 146.886 96.751C147.173 96.7062 147.456 96.8443 147.598 97.0973C148.124 97.9986 150.183 97.2348 152.005 96.5612C153.561 95.9872 155.027 95.4417 156.127 95.6409C156.91 95.7302 157.65 96.045 158.257 96.547C165.131 88.957 167.806 79.7874 167.27 66.3863C167.045 61.1026 165.761 55.918 163.494 51.14ZM164.059 77.1546V77.3254C164.016 78.7912 163.062 83.6156 161.473 84.7541C161.228 84.9422 160.928 85.0454 160.619 85.0482C160.486 85.0469 160.353 85.0261 160.226 84.9865C158.404 84.4267 158.58 82.7522 158.646 82.1403C158.652 82.0566 158.652 81.9726 158.646 81.8889C158.643 81.8022 158.654 81.7157 158.679 81.6327C158.836 81.1583 160.245 76.7846 161.322 75.6556C161.914 75.0342 162.617 74.4317 163.328 74.7068C164.04 74.982 164.092 76.0209 164.059 77.1546Z" fill="#4565DB"/>
</svg>
